<?xml version="1.0" encoding="utf-8"?>
<svg xmlns="http://www.w3.org/2000/svg" viewBox="0 0 24 24" fill="#000000"><path style="line-height:normal;text-indent:0;text-align:start;text-decoration-line:none;text-decoration-style:solid;text-decoration-color:#000;text-transform:none;block-progression:tb;isolation:auto;mix-blend-mode:normal" d="M 7 2 C 5.3549904 2 4 3.3549904 4 5 C 4 6.2931586 4.84267 7.3951413 6 7.8125 L 6 16.1875 C 4.84267 16.604859 4 17.706841 4 19 C 4 20.64501 5.3549904 22 7 22 C 8.6450096 22 10 20.64501 10 19 C 10 17.706841 9.15733 16.604859 8 16.1875 L 8 12.371094 C 8.3925747 12.843681 8.8240877 13.271134 9.2773438 13.650391 C 10.81345 14.935709 12.576385 15.725902 14.166016 15.9375 C 14.565328 17.126976 15.683738 18 17 18 C 18.64501 18 20 16.64501 20 15 C 20 13.35499 18.64501 12 17 12 C 15.740535 12 14.658293 12.797611 14.216797 13.908203 C 13.134107 13.695031 11.725241 13.090096 10.5625 12.117188 C 9.277481 11.041963 8.2809903 9.5949132 8.0507812 7.796875 C 9.1823171 7.3658903 10 6.2745804 10 5 C 10 3.3549904 8.6450096 2 7 2 z M 7 4 C 7.5641294 4 8 4.4358706 8 5 C 8 5.5641294 7.5641294 6 7 6 C 6.4358706 6 6 5.5641294 6 5 C 6 4.4358706 6.4358706 4 7 4 z M 17 14 C 17.564129 14 18 14.435871 18 15 C 18 15.564129 17.564129 16 17 16 C 16.435871 16 16 15.564129 16 15 C 16 14.435871 16.435871 14 17 14 z M 7 18 C 7.5641294 18 8 18.435871 8 19 C 8 19.564129 7.5641294 20 7 20 C 6.4358706 20 6 19.564129 6 19 C 6 18.435871 6.4358706 18 7 18 z" font-weight="400" font-family="sans-serif" white-space="normal" overflow="visible" fill="#000000"/></svg>
